<svg id="Layer_1" data-name="Layer 1" xmlns="http://www.w3.org/2000/svg" viewBox="0 0 110 87"><defs><style>.cls-1{fill:#9db73b;}</style></defs><title>obu-logo</title><g id="outline"><path class="cls-1" d="M26.25,59.94A16.41,16.41,0,0,1,14.14,55,16.59,16.59,0,0,1,9.27,42.87a16.67,16.67,0,0,1,17-17,16.74,16.74,0,0,1,17,17,16.77,16.77,0,0,1-17,17.07Zm0-23.27a6.13,6.13,0,0,0-6.18,6.2,6.13,6.13,0,0,0,1.79,4.44,5.92,5.92,0,0,0,4.39,1.83,6,6,0,0,0,4.41-1.83,6.08,6.08,0,0,0,1.82-4.44,6,6,0,0,0-1.82-4.4A6,6,0,0,0,26.25,36.67Z"/><path class="cls-1" d="M58.1,59.82a16.77,16.77,0,0,1-17-17V18.59a5.28,5.28,0,0,1,5.38-5.38,5.33,5.33,0,0,1,3.89,1.51,5.22,5.22,0,0,1,1.54,3.87V42.83A6.13,6.13,0,0,0,58.1,49a6.1,6.1,0,0,0,4.42-1.79,5.87,5.87,0,0,0,1.82-4.36,6.2,6.2,0,0,0-6.24-6.2,5.17,5.17,0,0,1-5.37-5.37,5.36,5.36,0,0,1,1.51-3.89,5.18,5.18,0,0,1,3.86-1.55,16.75,16.75,0,0,1,17,17A16.29,16.29,0,0,1,70.2,54.92,16.49,16.49,0,0,1,58.1,59.82Z"/><path class="cls-1" d="M87.49,59.82A14.27,14.27,0,0,1,72.92,45.2V31.32a5.38,5.38,0,0,1,1.51-3.91,5.18,5.18,0,0,1,3.86-1.55,5.3,5.3,0,0,1,5.43,5.47v13.9A3.71,3.71,0,0,0,87.49,49a3.51,3.51,0,0,0,2.65-1.09,3.71,3.71,0,0,0,1-2.69v-14a5.19,5.19,0,0,1,1.55-3.87,5.32,5.32,0,0,1,3.89-1.52A5.18,5.18,0,0,1,102,31.24v14a14.16,14.16,0,0,1-4.17,10.39A14,14,0,0,1,87.49,59.82Z"/><path class="cls-1" d="M9.46,67.2A.73.73,0,0,1,8,67.2a.72.72,0,0,1,.74-.74A.7.7,0,0,1,9.46,67.2ZM8.15,75.5V69H9.32V75.5Z"/><path class="cls-1" d="M14.9,70.78c0-.67,0-1.22-.06-1.76h1.05L16,70.09h0a2.4,2.4,0,0,1,2.15-1.22c.89,0,2.29.54,2.29,2.76V75.5H19.24V71.77c0-1-.39-1.92-1.5-1.92a1.67,1.67,0,0,0-1.58,1.21,1.49,1.49,0,0,0-.08.55V75.5H14.9Z"/><path class="cls-1" d="M27.32,67.16V69H29v.9H27.32v3.49c0,.81.22,1.26.88,1.26a2.55,2.55,0,0,0,.68-.08l.06.89a3,3,0,0,1-1.05.16,1.63,1.63,0,0,1-1.27-.5,2.38,2.38,0,0,1-.46-1.69V69.92h-1V69h1V67.47Z"/><path class="cls-1" d="M34.52,72.48a2.08,2.08,0,0,0,2.23,2.25,4.19,4.19,0,0,0,1.79-.34l.2.84a5.13,5.13,0,0,1-2.15.41,3,3,0,0,1-3.19-3.27c0-2,1.15-3.5,3-3.5,2.11,0,2.68,1.87,2.68,3.06a5.29,5.29,0,0,1,0,.55ZM38,71.63a1.68,1.68,0,0,0-1.64-1.91,1.94,1.94,0,0,0-1.8,1.91Z"/><path class="cls-1" d="M44.19,71c0-.76,0-1.42,0-2h1l0,1.27h.06a1.94,1.94,0,0,1,1.79-1.42,1.76,1.76,0,0,1,.34,0V70A1.68,1.68,0,0,0,47,70a1.64,1.64,0,0,0-1.58,1.51,4.31,4.31,0,0,0,0,.55V75.5H44.19Z"/><path class="cls-1" d="M55.71,75.5l-.09-.81h0a2.41,2.41,0,0,1-2,1,1.84,1.84,0,0,1-2-1.86c0-1.57,1.39-2.43,3.89-2.41v-.14A1.33,1.33,0,0,0,54,69.74a3.21,3.21,0,0,0-1.69.49l-.26-.78a4,4,0,0,1,2.12-.58c2,0,2.47,1.36,2.47,2.66V74a9.1,9.1,0,0,0,.11,1.55Zm-.17-3.31c-1.28,0-2.74.21-2.74,1.46a1,1,0,0,0,1.11,1.13,1.6,1.6,0,0,0,1.56-1.09,1.21,1.21,0,0,0,.07-.37Z"/><path class="cls-1" d="M66.82,75.26a4.34,4.34,0,0,1-1.86.38,3.08,3.08,0,0,1-3.23-3.31,3.29,3.29,0,0,1,3.48-3.44,4,4,0,0,1,1.64.33l-.27.91a2.73,2.73,0,0,0-1.37-.31,2.45,2.45,0,0,0,0,4.88,3.35,3.35,0,0,0,1.45-.32Z"/><path class="cls-1" d="M73.41,67.16V69H75.1v.9H73.41v3.49c0,.81.23,1.26.89,1.26a2.67,2.67,0,0,0,.68-.08l0,.89a3,3,0,0,1-1,.16,1.63,1.63,0,0,1-1.27-.5,2.38,2.38,0,0,1-.46-1.69V69.92h-1V69h1V67.47Z"/><path class="cls-1" d="M81.36,67.2a.73.73,0,0,1-1.46,0,.73.73,0,1,1,1.46,0ZM80,75.5V69h1.18V75.5Z"/><path class="cls-1" d="M87.25,69l1.27,3.64A14.84,14.84,0,0,1,89,74.32h0c.15-.53.34-1.07.55-1.66L90.89,69h1.24L89.58,75.5H88.46L86,69Z"/><path class="cls-1" d="M97.38,72.48a2.07,2.07,0,0,0,2.22,2.25,4.19,4.19,0,0,0,1.79-.34l.21.84a5.23,5.23,0,0,1-2.16.41,3,3,0,0,1-3.19-3.27c0-2,1.15-3.5,3-3.5,2.12,0,2.68,1.87,2.68,3.06a5.29,5.29,0,0,1,0,.55Zm3.45-.85a1.67,1.67,0,0,0-1.63-1.91,2,2,0,0,0-1.81,1.91Z"/></g></svg>