<svg id="Layer_1" data-name="Layer 1" xmlns="http://www.w3.org/2000/svg" xmlns:xlink="http://www.w3.org/1999/xlink" viewBox="0 0 1366 581"><defs><style>.cls-1{fill:none;}.cls-2{clip-path:url(#clip-path);}.cls-3{opacity:0.42;}.cls-4{fill:#414968;}</style><clipPath id="clip-path"><rect class="cls-1" x="-11" y="5.64" width="1388" height="575.84"/></clipPath></defs><title>cycle-lines-bg-02</title><g class="cls-2"><g class="cls-3"><polygon class="cls-4" points="545.11 71.37 545.11 194.04 545.25 194.18 596.66 245.59 596.66 751.38 597.6 751.38 597.6 245.19 597.47 245.05 546.06 193.65 546.06 71.37 545.11 71.37"/><circle class="cls-4" cx="545.58" cy="71.37" r="5.43"/><path class="cls-4" d="M735.81,127a6.85,6.85,0,1,1-6.85,6.85A6.86,6.86,0,0,1,735.81,127Zm0,2.83a4,4,0,1,0,4,4A4,4,0,0,0,735.81,129.86Z"/><polygon class="cls-4" points="680.72 331.1 680.72 707.91 681.66 707.91 681.66 331.49 736.28 276.87 736.28 139.31 735.33 139.31 735.33 276.48 680.72 331.1"/><circle class="cls-4" cx="641.95" cy="184.91" r="5.43" transform="translate(-21.43 106.02) rotate(-9.29)"/><polygon class="cls-4" points="603.41 406.49 603.41 690.73 604.36 690.73 604.36 406.88 642.42 368.81 642.42 184.91 641.48 184.91 641.48 368.42 603.41 406.49"/><circle class="cls-4" cx="940.34" cy="387.47" r="5.43"/><polygon class="cls-4" points="901.8 609.06 901.8 893.29 902.74 893.29 902.74 609.45 940.81 571.38 940.81 387.47 939.87 387.47 939.87 570.99 901.8 609.06"/><polygon class="cls-4" points="560.72 490.81 560.72 758.63 561.66 758.63 561.66 491.76 620.3 491.76 620.3 315.18 620.16 315.04 584.83 279.71 584.83 187.7 583.89 187.7 583.89 280.11 584.02 280.25 619.35 315.57 619.35 490.81 560.72 490.81"/><path class="cls-4" d="M584.38,175.42a6.85,6.85,0,1,1-6.85,6.85A6.85,6.85,0,0,1,584.38,175.42Zm0,2.83a4,4,0,1,0,4,4A4,4,0,0,0,584.38,178.25Z"/><path class="cls-4" d="M520.42,175.42a6.85,6.85,0,1,1-6.85,6.85A6.85,6.85,0,0,1,520.42,175.42Zm0,2.83a4,4,0,1,0,4,4A4,4,0,0,0,520.42,178.25Z"/><polygon class="cls-4" points="519.95 187.7 519.95 304.72 520.08 304.86 577.62 362.39 577.62 712.91 578.56 712.91 578.56 362 578.42 361.86 520.89 304.33 520.89 187.7 519.95 187.7"/><circle class="cls-4" cx="693.51" cy="283.71" r="5.43"/><polygon class="cls-4" points="635.02 438.76 635.02 744.28 635.97 744.28 635.97 439.15 693.99 381.13 693.99 283.71 693.04 283.71 693.04 380.74 635.02 438.76"/><polygon class="cls-4" points="875.26 492.45 875.26 707.92 876.03 707.92 876.03 493.27 923.78 493.27 923.78 339.66 923.67 339.54 894.9 308.8 894.9 228.75 894.13 228.75 894.13 309.14 894.24 309.27 923.01 340 923.01 492.45 875.26 492.45"/><circle class="cls-4" cx="894.54" cy="228.75" r="5.43"/><polygon class="cls-4" points="910.09 290.88 910.09 413.55 909.96 413.69 858.55 465.1 858.55 817.83 857.6 817.83 857.6 464.71 857.74 464.57 909.14 413.16 909.14 290.88 910.09 290.88"/><circle class="cls-4" cx="909.62" cy="290.88" r="5.43" transform="translate(291.07 1018.49) rotate(-67.37)"/><path class="cls-4" d="M532.74,345.05a6.85,6.85,0,1,1-6.86,6.85A6.87,6.87,0,0,1,532.74,345.05Zm0,2.84a4,4,0,1,0,4,4A4,4,0,0,0,532.74,347.89Z"/><polygon class="cls-4" points="509.07 660.45 509.07 775.21 510.02 775.21 510.02 661.4 568.65 661.4 568.65 484.82 568.52 484.68 533.19 449.35 533.19 357.34 532.24 357.34 532.24 449.74 532.38 449.88 567.71 485.21 567.71 660.45 509.07 660.45"/><polygon class="cls-4" points="820.78 460.05 820.78 744.96 821.72 744.96 821.72 460.99 880.36 460.99 880.36 284.41 880.22 284.27 844.89 248.95 844.89 156.93 843.95 156.93 843.95 249.34 844.09 249.48 879.41 284.81 879.41 460.05 820.78 460.05"/><path class="cls-4" d="M843.77,144.68a6.85,6.85,0,1,1-6.15,7.5A6.86,6.86,0,0,1,843.77,144.68Zm.28,2.83a4,4,0,1,0,4.39,3.6A4,4,0,0,0,844.05,147.51Z"/><path class="cls-4" d="M845.2,288.85a5.43,5.43,0,1,1,5.44-5.43A5.43,5.43,0,0,1,845.2,288.85Z"/><polygon class="cls-4" points="883.74 505.01 883.74 722.19 882.8 722.19 882.8 505.4 844.73 467.33 844.73 283.42 845.68 283.42 845.68 466.94 883.74 505.01"/><polygon class="cls-4" points="870.03 376.7 870.03 704.62 869.09 704.62 869.09 377.09 814.47 322.47 814.47 184.91 815.41 184.91 815.41 322.08 870.03 376.7"/><circle class="cls-4" cx="814.89" cy="184.91" r="5.43"/><polygon class="cls-4" points="894 408.38 894 719.88 893.05 719.88 893.05 409.33 834.41 409.33 834.41 232.75 834.55 232.61 869.88 197.29 869.88 105.27 870.83 105.27 870.83 197.68 870.69 197.82 835.36 233.14 835.36 408.38 894 408.38"/><path class="cls-4" d="M877.18,99.84A6.85,6.85,0,1,1,870.33,93,6.85,6.85,0,0,1,877.18,99.84Zm-10.86,0a4,4,0,1,0,4-4A4,4,0,0,0,866.32,99.84Z"/><path class="cls-4" d="M967.84,275.73a6.85,6.85,0,1,1-6.86-6.85A6.87,6.87,0,0,1,967.84,275.73Zm-10.87,0a4,4,0,1,0,4-4A4,4,0,0,0,957,275.73Z"/><polygon class="cls-4" points="961.46 281.16 961.46 398.18 961.32 398.32 903.79 455.85 903.79 813.1 902.84 813.1 902.84 455.46 902.98 455.32 960.51 397.79 960.51 281.16 961.46 281.16"/><path class="cls-4" d="M787.94,347.88a5.44,5.44,0,1,1,5.43-5.43A5.43,5.43,0,0,1,787.94,347.88Z"/><polygon class="cls-4" points="846.43 497.5 846.43 695.79 845.48 695.79 845.48 497.89 787.47 439.87 787.47 342.45 788.41 342.45 788.41 439.48 846.43 497.5"/><path class="cls-4" d="M784.19,209.67a5.16,5.16,0,1,1,5.16-5.15A5.16,5.16,0,0,1,784.19,209.67Z"/><polygon class="cls-4" points="784.64 204.52 784.64 320.89 784.51 321.02 735.75 369.79 735.75 704.41 734.85 704.41 734.85 369.42 734.98 369.28 783.74 320.52 783.74 204.52 784.64 204.52"/><path class="cls-4" d="M135.93,269.33a5.16,5.16,0,1,1,5.15-5.16A5.15,5.15,0,0,1,135.93,269.33Z"/><polygon class="cls-4" points="136.38 264.17 136.38 380.54 136.25 380.68 87.48 429.44 87.48 764.06 86.58 764.06 86.58 429.07 86.71 428.94 135.48 380.17 135.48 264.17 136.38 264.17"/><circle class="cls-4" cx="653.32" cy="231.2" r="5.43" transform="translate(-38.85 265.55) rotate(-22.33)"/><polygon class="cls-4" points="705.59 413.14 705.59 723.8 704.69 723.8 704.69 413.51 652.88 361.7 652.88 231.2 653.78 231.2 653.78 361.33 705.59 413.14"/><path class="cls-4" d="M719.8,21.11A5.16,5.16,0,1,1,725,16,5.16,5.16,0,0,1,719.8,21.11Z"/><polygon class="cls-4" points="756.84 225.05 756.84 681.41 755.95 681.41 755.95 225.43 719.84 189.31 719.84 14.85 720.73 14.85 720.73 188.94 756.84 225.05"/><path class="cls-4" d="M717.77,331.6a6.09,6.09,0,1,1-6.08-6.08A6.08,6.08,0,0,1,717.77,331.6Zm-9.65,0a3.57,3.57,0,1,0,3.57-3.56A3.57,3.57,0,0,0,708.12,331.6Z"/><polygon class="cls-4" points="712.11 336.43 712.11 440.34 711.98 440.47 660.89 491.56 660.89 666.91 660.05 666.91 660.05 491.21 660.18 491.09 711.27 440 711.27 336.43 712.11 336.43"/><path class="cls-4" d="M532.63,481.05a6.09,6.09,0,1,1-6.09-6.08A6.09,6.09,0,0,1,532.63,481.05Zm-9.65,0a3.57,3.57,0,1,0,3.56-3.56A3.56,3.56,0,0,0,523,481.05Z"/><polygon class="cls-4" points="526.96 485.87 526.96 589.79 526.84 589.92 475.75 641.01 475.75 816.36 474.91 816.36 474.91 640.66 475.03 640.54 526.12 589.45 526.12 485.87 526.96 485.87"/><path class="cls-4" d="M797.28,553.21a6.09,6.09,0,1,1-6.09-6.08A6.09,6.09,0,0,1,797.28,553.21Zm-9.65,0a3.57,3.57,0,1,0,3.56-3.56A3.56,3.56,0,0,0,787.63,553.21Z"/><polygon class="cls-4" points="791.61 558.04 791.61 661.96 791.49 662.08 740.4 713.17 740.4 888.52 739.56 888.52 739.56 712.82 739.68 712.7 790.77 661.61 790.77 558.04 791.61 558.04"/><path class="cls-4" d="M830.35,286.24a6.08,6.08,0,1,1-6.08-6.09A6.09,6.09,0,0,1,830.35,286.24Zm-9.64,0a3.56,3.56,0,1,0,3.56-3.57A3.56,3.56,0,0,0,820.71,286.24Z"/><polygon class="cls-4" points="824.69 291.06 824.69 394.98 824.57 395.1 773.48 446.19 773.48 765.13 772.64 765.13 772.64 445.84 772.76 445.72 823.85 394.63 823.85 291.06 824.69 291.06"/><path class="cls-4" d="M774.92,138.24a6.5,6.5,0,1,1-6.5,6.5A6.51,6.51,0,0,1,774.92,138.24Zm0,2.69a3.81,3.81,0,1,0,3.8,3.81A3.82,3.82,0,0,0,774.92,140.93Z"/><polygon class="cls-4" points="722.66 331.83 722.66 700.01 723.55 700.01 723.55 332.2 775.37 280.39 775.37 149.89 774.47 149.89 774.47 280.02 722.66 331.83"/><path class="cls-4" d="M862.13,248.42a5.15,5.15,0,1,0-5.15-5.15A5.14,5.14,0,0,0,862.13,248.42Z"/><polygon class="cls-4" points="825.57 453.48 825.57 719.62 826.47 719.62 826.47 453.85 862.58 417.74 862.58 243.27 861.68 243.27 861.68 417.37 825.57 453.48"/><path class="cls-4" d="M779.19,383.2a6.5,6.5,0,1,1-6.5,6.5A6.51,6.51,0,0,1,779.19,383.2Zm0,2.69A3.81,3.81,0,1,0,783,389.7,3.82,3.82,0,0,0,779.19,385.89Z"/><polygon class="cls-4" points="778.74 394.71 778.74 487.61 778.87 487.74 833.45 542.32 833.45 729.64 834.35 729.64 834.35 541.94 834.22 541.81 779.64 487.23 779.64 394.71 778.74 394.71"/><circle class="cls-4" cx="803.52" cy="304.68" r="5.15"/><polygon class="cls-4" points="748.03 451.76 748.03 756.02 748.93 756.02 748.93 452.13 803.97 397.1 803.97 304.68 803.07 304.68 803.07 396.73 748.03 451.76"/><polygon class="cls-4" points="956.71 74.09 956.71 196.76 956.85 196.9 1008.26 248.3 1008.26 754.09 1009.2 754.09 1009.2 247.91 1009.07 247.77 957.66 196.37 957.66 74.09 956.71 74.09"/><circle class="cls-4" cx="957.19" cy="74.09" r="5.43" transform="translate(0.56 155.14) rotate(-9.27)"/><polygon class="cls-4" points="1282.05 126.39 1282.05 249.06 1282.18 249.2 1333.59 300.6 1333.59 806.39 1334.53 806.39 1334.53 300.21 1334.4 300.07 1282.99 248.67 1282.99 126.39 1282.05 126.39"/><circle class="cls-4" cx="1282.52" cy="126.39" r="5.43"/><path class="cls-4" d="M1095,125.42a6.85,6.85,0,1,1-6.85,6.85A6.85,6.85,0,0,1,1095,125.42Zm0,2.84a4,4,0,1,0,4,4A4,4,0,0,0,1095,128.26Z"/><polygon class="cls-4" points="1039.94 329.49 1039.94 706.31 1040.88 706.31 1040.88 329.89 1095.5 275.27 1095.5 137.7 1094.56 137.7 1094.56 274.88 1039.94 329.49"/><path class="cls-4" d="M1363.14,243.26a5.44,5.44,0,1,0-5.44-5.44A5.44,5.44,0,0,0,1363.14,243.26Z"/><polygon class="cls-4" points="1324.6 459.41 1324.6 743.64 1325.54 743.64 1325.54 459.8 1363.61 421.73 1363.61 237.82 1362.66 237.82 1362.66 421.34 1324.6 459.41"/><polygon class="cls-4" points="1344.13 639.59 1344.13 923.83 1345.08 923.83 1345.08 639.98 1383.15 601.91 1383.15 418 1382.2 418 1382.2 601.52 1344.13 639.59"/><polygon class="cls-4" points="972.32 490.81 972.32 758.63 973.26 758.63 973.26 491.76 1031.9 491.76 1031.9 315.18 1031.77 315.04 996.44 279.71 996.44 187.7 995.49 187.7 995.49 280.11 995.63 280.25 1030.96 315.57 1030.96 490.81 972.32 490.81"/><path class="cls-4" d="M996,175.42a6.85,6.85,0,1,1-6.86,6.85A6.85,6.85,0,0,1,996,175.42Zm0,2.83a4,4,0,1,0,4,4A4,4,0,0,0,996,178.25Z"/><path class="cls-4" d="M937.84,175.42a6.85,6.85,0,1,1-6.85,6.85A6.85,6.85,0,0,1,937.84,175.42Zm0,2.83a4,4,0,1,0,4,4A4,4,0,0,0,937.84,178.25Z"/><polygon class="cls-4" points="937.37 187.7 937.37 304.72 937.5 304.86 995.04 362.39 995.04 712.91 995.98 712.91 995.98 362 995.85 361.86 938.31 304.33 938.31 187.7 937.37 187.7"/><circle class="cls-4" cx="1103" cy="415.38" r="5.43"/><polygon class="cls-4" points="1044.52 570.42 1044.52 875.95 1045.46 875.95 1045.46 570.82 1103.48 512.8 1103.48 415.38 1102.53 415.38 1102.53 512.41 1044.52 570.42"/><polygon class="cls-4" points="1324.72 522.99 1324.72 738.46 1325.49 738.46 1325.49 523.81 1373.24 523.81 1373.24 370.19 1373.13 370.07 1344.36 339.34 1344.36 259.29 1343.59 259.29 1343.59 339.68 1343.7 339.8 1372.47 370.53 1372.47 522.99 1324.72 522.99"/><path class="cls-4" d="M1344,264.72a5.43,5.43,0,1,1,5.43-5.43A5.43,5.43,0,0,1,1344,264.72Z"/><polygon class="cls-4" points="1324.52 223.65 1324.52 346.32 1324.39 346.46 1272.98 397.87 1272.98 750.6 1272.03 750.6 1272.03 397.47 1272.17 397.33 1323.58 345.93 1323.58 223.65 1324.52 223.65"/><circle class="cls-4" cx="1324.05" cy="223.65" r="5.43"/><path class="cls-4" d="M951.73,345.05a6.85,6.85,0,1,1-6.85,6.85A6.86,6.86,0,0,1,951.73,345.05Zm0,2.84a4,4,0,1,0,4,4A4,4,0,0,0,951.73,347.89Z"/><polygon class="cls-4" points="928.07 660.45 928.07 775.21 929.01 775.21 929.01 661.4 987.65 661.4 987.65 484.82 987.51 484.68 952.18 449.35 952.18 357.34 951.24 357.34 951.24 449.74 951.37 449.88 986.7 485.21 986.7 660.45 928.07 660.45"/><polygon class="cls-4" points="1206.52 460.05 1206.52 744.96 1207.47 744.96 1207.47 460.99 1266.11 460.99 1266.11 284.41 1265.97 284.27 1230.64 248.95 1230.64 156.93 1229.69 156.93 1229.69 249.34 1229.83 249.48 1265.16 284.81 1265.16 460.05 1206.52 460.05"/><path class="cls-4" d="M1229.52,144.68a6.85,6.85,0,1,1-6.15,7.5A6.87,6.87,0,0,1,1229.52,144.68Zm.27,2.83a4,4,0,1,0,4.39,3.6A4,4,0,0,0,1229.79,147.51Z"/><circle class="cls-4" cx="1275.29" cy="282.79" r="5.43"/><polygon class="cls-4" points="1313.83 504.37 1313.83 721.55 1312.88 721.55 1312.88 504.76 1274.82 466.7 1274.82 282.79 1275.76 282.79 1275.76 466.3 1313.83 504.37"/><polygon class="cls-4" points="1305.81 376.7 1305.81 704.62 1304.86 704.62 1304.86 377.09 1250.25 322.47 1250.25 184.91 1251.19 184.91 1251.19 322.08 1305.81 376.7"/><path class="cls-4" d="M1250.67,190.34a5.44,5.44,0,1,1,5.44-5.43A5.44,5.44,0,0,1,1250.67,190.34Z"/><polygon class="cls-4" points="1357.89 408.38 1357.89 719.88 1356.95 719.88 1356.95 409.33 1298.31 409.33 1298.31 232.75 1298.45 232.61 1333.78 197.29 1333.78 105.27 1334.72 105.27 1334.72 197.68 1334.59 197.82 1299.26 233.14 1299.26 408.38 1357.89 408.38"/><path class="cls-4" d="M1341.08,99.84a6.85,6.85,0,1,1-6.85-6.85A6.85,6.85,0,0,1,1341.08,99.84Zm-10.86,0a4,4,0,1,0,4-4A4,4,0,0,0,1330.22,99.84Z"/><polygon class="cls-4" points="1375.89 190.25 1375.89 307.28 1375.75 307.42 1318.22 364.95 1318.22 722.19 1317.27 722.19 1317.27 364.56 1317.41 364.42 1374.94 306.88 1374.94 190.25 1375.89 190.25"/><path class="cls-4" d="M1207.92,347.88a5.44,5.44,0,1,1,5.44-5.43A5.44,5.44,0,0,1,1207.92,347.88Z"/><polygon class="cls-4" points="1266.41 497.5 1266.41 695.79 1265.47 695.79 1265.47 497.89 1207.45 439.87 1207.45 342.45 1208.4 342.45 1208.4 439.48 1266.41 497.5"/><circle class="cls-4" cx="1214.69" cy="204.52" r="5.15"/><polygon class="cls-4" points="1215.14 204.52 1215.14 320.89 1215.01 321.02 1166.24 369.79 1166.24 704.41 1165.34 704.41 1165.34 369.42 1165.47 369.28 1214.24 320.52 1214.24 204.52 1215.14 204.52"/><circle class="cls-4" cx="1037.33" cy="222.51" r="5.43" transform="translate(438.47 1098.25) rotate(-67.74)"/><polygon class="cls-4" points="1089.6 404.45 1089.6 715.11 1088.7 715.11 1088.7 404.82 1036.89 353.01 1036.89 222.51 1037.79 222.51 1037.79 352.64 1089.6 404.45"/><circle class="cls-4" cx="1108.51" cy="90.66" r="5.15"/><polygon class="cls-4" points="1145.55 299.75 1145.55 756.11 1144.66 756.11 1144.66 300.12 1108.55 264.01 1108.55 89.55 1109.44 89.55 1109.44 263.64 1145.55 299.75"/><path class="cls-4" d="M1133.76,331.6a6.09,6.09,0,1,1-6.08-6.08A6.08,6.08,0,0,1,1133.76,331.6Zm-9.65,0a3.57,3.57,0,1,0,3.57-3.56A3.57,3.57,0,0,0,1124.11,331.6Z"/><polygon class="cls-4" points="1128.1 336.43 1128.1 440.34 1127.97 440.47 1076.88 491.56 1076.88 666.91 1076.05 666.91 1076.05 491.21 1076.17 491.09 1127.26 440 1127.26 336.43 1128.1 336.43"/><path class="cls-4" d="M968.94,480.8a6.09,6.09,0,1,1-6.09-6.09A6.09,6.09,0,0,1,968.94,480.8Zm-9.65,0a3.57,3.57,0,1,0,3.56-3.57A3.57,3.57,0,0,0,959.29,480.8Z"/><polygon class="cls-4" points="963.27 485.62 963.27 589.54 963.15 589.67 912.06 640.76 912.06 816.11 911.22 816.11 911.22 640.41 911.35 640.28 962.43 589.19 962.43 485.62 963.27 485.62"/><path class="cls-4" d="M1195.44,525.21a6.09,6.09,0,1,1-6.09-6.09A6.09,6.09,0,0,1,1195.44,525.21Zm-9.65,0a3.57,3.57,0,1,0,3.56-3.57A3.57,3.57,0,0,0,1185.79,525.21Z"/><polygon class="cls-4" points="1189.77 530.03 1189.77 633.95 1189.65 634.07 1138.56 685.16 1138.56 860.51 1137.72 860.51 1137.72 684.81 1137.84 684.69 1188.93 633.6 1188.93 530.03 1189.77 530.03"/><path class="cls-4" d="M1253,417.62a6.09,6.09,0,1,1-6.09-6.09A6.09,6.09,0,0,1,1253,417.62Zm-9.65,0a3.57,3.57,0,1,0,3.56-3.57A3.57,3.57,0,0,0,1243.34,417.62Z"/><polygon class="cls-4" points="1247.32 422.44 1247.32 526.36 1247.2 526.48 1196.11 577.57 1196.11 752.92 1195.27 752.92 1195.27 577.22 1195.39 577.1 1246.48 526.01 1246.48 422.44 1247.32 422.44"/><path class="cls-4" d="M1300.89,461.27a6.09,6.09,0,1,1-6.08-6.09A6.09,6.09,0,0,1,1300.89,461.27Zm-9.65,0a3.57,3.57,0,1,0,3.57-3.57A3.57,3.57,0,0,0,1291.24,461.27Z"/><polygon class="cls-4" points="1295.23 466.09 1295.23 570.01 1295.11 570.14 1244.02 621.23 1244.02 796.58 1243.17 796.58 1243.17 620.88 1243.3 620.75 1294.39 569.66 1294.39 466.09 1295.23 466.09"/><path class="cls-4" d="M1183.44,288a6.09,6.09,0,1,1-6.09-6.09A6.09,6.09,0,0,1,1183.44,288Zm-9.65,0a3.57,3.57,0,1,0,3.56-3.57A3.56,3.56,0,0,0,1173.79,288Z"/><polygon class="cls-4" points="1177.77 292.81 1177.77 396.73 1177.65 396.86 1126.56 447.95 1126.56 766.89 1125.72 766.89 1125.72 447.6 1125.84 447.47 1176.93 396.38 1176.93 292.81 1177.77 292.81"/><path class="cls-4" d="M1163.63,138.24a6.5,6.5,0,1,1-6.5,6.5A6.51,6.51,0,0,1,1163.63,138.24Zm0,2.69a3.81,3.81,0,1,0,3.81,3.81A3.82,3.82,0,0,0,1163.63,140.93Z"/><polygon class="cls-4" points="1111.37 331.83 1111.37 700.01 1112.26 700.01 1112.26 332.2 1164.08 280.39 1164.08 149.89 1163.18 149.89 1163.18 280.02 1111.37 331.83"/><path class="cls-4" d="M1191.14,248.42a5.15,5.15,0,1,0-5.15-5.15A5.15,5.15,0,0,0,1191.14,248.42Z"/><polygon class="cls-4" points="1154.58 453.48 1154.58 719.62 1155.47 719.62 1155.47 453.85 1191.59 417.74 1191.59 243.27 1190.69 243.27 1190.69 417.37 1154.58 453.48"/><path class="cls-4" d="M1198.48,383.2a6.5,6.5,0,1,1-6.5,6.5A6.51,6.51,0,0,1,1198.48,383.2Zm0,2.69a3.81,3.81,0,1,0,3.81,3.81A3.81,3.81,0,0,0,1198.48,385.89Z"/><polygon class="cls-4" points="1198.04 394.71 1198.04 487.61 1198.17 487.74 1252.74 542.32 1252.74 729.64 1253.64 729.64 1253.64 541.94 1253.51 541.81 1198.93 487.23 1198.93 394.71 1198.04 394.71"/><circle class="cls-4" cx="1230.57" cy="304.68" r="5.15"/><polygon class="cls-4" points="1175.09 451.76 1175.09 756.02 1175.98 756.02 1175.98 452.13 1231.02 397.1 1231.02 304.68 1230.12 304.68 1230.12 396.73 1175.09 451.76"/><path class="cls-4" d="M1020.1,367.76a6.85,6.85,0,1,1-6.85,6.85A6.85,6.85,0,0,1,1020.1,367.76Zm0,2.83a4,4,0,1,0,4,4A4,4,0,0,0,1020.1,370.59Z"/><polygon class="cls-4" points="965.01 571.83 965.01 948.64 965.96 948.64 965.96 572.22 1020.58 517.6 1020.58 380.04 1019.63 380.04 1019.63 517.21 965.01 571.83"/><circle class="cls-4" cx="1061.07" cy="259.32" r="5.43" transform="translate(-18.81 423.57) rotate(-22.38)"/><polygon class="cls-4" points="1022.53 480.9 1022.53 765.14 1023.48 765.14 1023.48 481.29 1061.54 443.23 1061.54 259.32 1060.6 259.32 1060.6 442.83 1022.53 480.9"/><circle class="cls-4" cx="97.94" cy="165.18" r="5.43"/><polygon class="cls-4" points="59.4 386.77 59.4 671 60.35 671 60.35 387.16 98.41 349.09 98.41 165.18 97.47 165.18 97.47 348.7 59.4 386.77"/><circle class="cls-4" cx="15.71" cy="310.11" r="5.43"/><polygon class="cls-4" points="-22.83 531.69 -22.83 815.93 -21.88 815.93 -21.88 532.08 16.19 494.02 16.19 310.11 15.24 310.11 15.24 493.63 -22.83 531.69"/><path class="cls-4" d="M552.92,243.48a6.85,6.85,0,1,1-6.86,6.85A6.86,6.86,0,0,1,552.92,243.48Zm0,2.84a4,4,0,1,0,4,4A4,4,0,0,0,552.92,246.32Z"/><polygon class="cls-4" points="552.45 255.76 552.45 372.79 552.58 372.93 610.11 430.46 610.11 780.98 611.06 780.98 611.06 430.07 610.92 429.93 553.39 372.39 553.39 255.76 552.45 255.76"/><path class="cls-4" d="M1120,265a5.44,5.44,0,1,0-5.43-5.44A5.44,5.44,0,0,0,1120,265Z"/><polygon class="cls-4" points="1061.54 414.61 1061.54 720.14 1062.49 720.14 1062.49 415 1120.5 356.99 1120.5 259.56 1119.56 259.56 1119.56 356.6 1061.54 414.61"/><polygon class="cls-4" points="654.97 429.22 654.97 753.58 655.74 753.58 655.74 430.04 703.5 430.04 703.5 276.43 703.38 276.31 674.61 245.57 674.61 165.53 673.84 165.53 673.84 245.91 673.95 246.04 702.72 276.77 702.72 429.22 654.97 429.22"/><circle class="cls-4" cx="674.25" cy="165.52" r="5.43" transform="matrix(0.39, -0.92, 0.92, 0.39, 261.65, 723.89)"/><polygon class="cls-4" points="475.03 451.41 475.03 574.08 474.89 574.22 423.49 625.62 423.49 978.36 422.54 978.36 422.54 625.23 422.68 625.09 474.09 573.69 474.09 451.41 475.03 451.41"/><circle class="cls-4" cx="474.56" cy="451.41" r="5.43"/><path class="cls-4" d="M621,532a6.85,6.85,0,1,1-6.86,6.85A6.86,6.86,0,0,1,621,532Zm0,2.83a4,4,0,1,0,4,4A4,4,0,0,0,621,534.82Z"/><polygon class="cls-4" points="597.28 847.38 597.28 962.14 598.23 962.14 598.23 848.33 656.86 848.33 656.86 671.75 656.73 671.61 621.4 636.28 621.4 544.27 620.45 544.27 620.45 636.68 620.59 636.82 655.92 672.14 655.92 847.38 597.28 847.38"/><polygon class="cls-4" points="519.46 882.73 519.46 1167.64 520.41 1167.64 520.41 883.67 579.05 883.67 579.05 707.09 578.91 706.95 543.58 671.63 543.58 579.61 542.63 579.61 542.63 672.02 542.77 672.16 578.1 707.49 578.1 882.73 519.46 882.73"/><path class="cls-4" d="M542.46,567.36a6.85,6.85,0,1,1-6.15,7.5A6.87,6.87,0,0,1,542.46,567.36Zm.27,2.83a4,4,0,1,0,4.39,3.6A4,4,0,0,0,542.73,570.19Z"/><polygon class="cls-4" points="614.66 592.86 614.66 920.78 613.72 920.78 613.72 593.25 559.1 538.63 559.1 401.07 560.05 401.07 560.05 538.24 614.66 592.86"/><path class="cls-4" d="M559.53,406.5a5.44,5.44,0,1,1,5.43-5.43A5.43,5.43,0,0,1,559.53,406.5Z"/><polygon class="cls-4" points="111.18 431.86 111.18 743.35 110.23 743.35 110.23 432.8 51.59 432.8 51.59 256.22 51.73 256.08 87.06 220.76 87.06 128.74 88.01 128.74 88.01 221.15 87.87 221.29 52.54 256.61 52.54 431.86 111.18 431.86"/><path class="cls-4" d="M94.37,123.31a6.86,6.86,0,1,1-6.86-6.85A6.86,6.86,0,0,1,94.37,123.31Zm-10.87,0a4,4,0,1,0,4-4A4,4,0,0,0,83.5,123.31Z"/><path class="cls-4" d="M144,451.62a6.85,6.85,0,1,1-6.86-6.86A6.87,6.87,0,0,1,144,451.62Zm-10.87,0a4,4,0,1,0,4-4A4,4,0,0,0,133.11,451.62Z"/><polygon class="cls-4" points="137.6 457.05 137.6 574.07 137.46 574.21 79.93 631.74 79.93 988.99 78.98 988.99 78.98 631.35 79.12 631.21 136.65 573.68 136.65 457.05 137.6 457.05"/><path class="cls-4" d="M983.55,403.45a5.16,5.16,0,1,1,5.16-5.16A5.16,5.16,0,0,1,983.55,403.45Z"/><polygon class="cls-4" points="984 398.3 984 514.67 983.87 514.8 935.11 563.56 935.11 898.18 934.21 898.18 934.21 563.19 934.34 563.06 983.1 514.29 983.1 398.3 984 398.3"/><path class="cls-4" d="M76,337a5.44,5.44,0,1,0-5.43-5.43A5.43,5.43,0,0,0,76,337Z"/><polygon class="cls-4" points="128.22 513.52 128.22 824.18 127.33 824.18 127.33 513.89 75.51 462.08 75.51 331.57 76.41 331.57 76.41 461.71 128.22 513.52"/><polygon class="cls-4" points="31.38 297.57 31.38 753.93 30.48 753.93 30.48 297.94 -5.63 261.83 -5.63 87.36 -4.73 87.36 -4.73 261.46 31.38 297.57"/><path class="cls-4" d="M233.75,304.26a6.09,6.09,0,1,1-6.09-6.09A6.09,6.09,0,0,1,233.75,304.26Zm-9.65,0a3.57,3.57,0,1,0,3.56-3.57A3.56,3.56,0,0,0,224.1,304.26Z"/><polygon class="cls-4" points="228.09 309.08 228.09 413 227.96 413.13 176.87 464.22 176.87 750.42 176.03 750.42 176.03 463.87 176.16 463.74 227.25 412.65 227.25 309.08 228.09 309.08"/><path class="cls-4" d="M128.23,376.86a6.09,6.09,0,1,1-6.08-6.09A6.09,6.09,0,0,1,128.23,376.86Zm-9.65,0a3.57,3.57,0,1,0,3.57-3.57A3.57,3.57,0,0,0,118.58,376.86Z"/><polygon class="cls-4" points="122.57 381.68 122.57 485.6 122.44 485.72 71.35 536.81 71.35 712.17 70.52 712.17 70.52 536.47 70.64 536.34 121.73 485.25 121.73 381.68 122.57 381.68"/><path class="cls-4" d="M651.77,481.05a6.08,6.08,0,1,1-6.08-6.08A6.09,6.09,0,0,1,651.77,481.05Zm-9.65,0a3.57,3.57,0,1,0,3.57-3.56A3.56,3.56,0,0,0,642.12,481.05Z"/><polygon class="cls-4" points="646.11 485.87 646.11 589.79 645.99 589.92 594.9 641.01 594.9 816.36 594.06 816.36 594.06 640.66 594.18 640.54 645.27 589.45 645.27 485.87 646.11 485.87"/><path class="cls-4" d="M1058.84,580.35a6.09,6.09,0,1,1-6.08-6.08A6.09,6.09,0,0,1,1058.84,580.35Zm-9.65,0a3.57,3.57,0,1,0,3.57-3.56A3.56,3.56,0,0,0,1049.19,580.35Z"/><path class="cls-4" d="M47.12,515.6A6.08,6.08,0,1,1,41,509.51,6.09,6.09,0,0,1,47.12,515.6Zm-9.65,0A3.57,3.57,0,1,0,41,512,3.57,3.57,0,0,0,37.47,515.6Z"/><polygon class="cls-4" points="41.46 520.42 41.46 624.34 41.34 624.46 -9.75 675.55 -9.75 850.9 -10.59 850.9 -10.59 675.21 -10.47 675.08 40.62 623.99 40.62 520.42 41.46 520.42"/><path class="cls-4" d="M11.61,580.35a6.09,6.09,0,1,1-6.09-6.08A6.09,6.09,0,0,1,11.61,580.35Zm-9.65,0a3.57,3.57,0,1,0,3.56-3.56A3.56,3.56,0,0,0,2,580.35Z"/><path class="cls-4" d="M688.91,177.68a6.09,6.09,0,1,1-6.08-6.08A6.09,6.09,0,0,1,688.91,177.68Zm-9.65,0a3.57,3.57,0,1,0,3.57-3.56A3.57,3.57,0,0,0,679.26,177.68Z"/><polygon class="cls-4" points="683.25 182.51 683.25 286.43 683.13 286.55 632.04 337.64 632.04 710.79 631.2 710.79 631.2 337.29 631.32 337.17 682.41 286.08 682.41 182.51 683.25 182.51"/><path class="cls-4" d="M383.81,194.21a6.5,6.5,0,1,1-6.5,6.49A6.5,6.5,0,0,1,383.81,194.21Zm0,2.69a3.81,3.81,0,1,0,3.81,3.8A3.8,3.8,0,0,0,383.81,196.9Z"/><polygon class="cls-4" points="331.55 387.8 331.55 755.97 332.45 755.97 332.45 388.17 384.26 336.36 384.26 205.85 383.37 205.85 383.37 335.99 331.55 387.8"/><polygon class="cls-4" points="1078.31 333.63 1078.31 456.3 1078.44 456.44 1129.85 507.85 1129.85 1013.63 1130.8 1013.63 1130.8 507.45 1130.66 507.31 1079.25 455.91 1079.25 333.63 1078.31 333.63"/><circle class="cls-4" cx="1078.78" cy="333.63" r="5.43"/><polygon class="cls-4" points="40.33 209.84 40.33 332.51 40.47 332.65 91.87 384.06 91.87 889.85 92.82 889.85 92.82 383.67 92.68 383.52 41.27 332.12 41.27 209.84 40.33 209.84"/><circle class="cls-4" cx="40.8" cy="209.84" r="5.43"/><polygon class="cls-4" points="450.8 126.39 450.8 249.06 450.93 249.2 502.34 300.6 502.34 806.39 503.29 806.39 503.29 300.21 503.15 300.07 451.74 248.67 451.74 126.39 450.8 126.39"/><circle class="cls-4" cx="451.27" cy="126.39" r="5.43"/><path class="cls-4" d="M260,148.92a6.85,6.85,0,1,1-6.85,6.85A6.86,6.86,0,0,1,260,148.92Zm0,2.84a4,4,0,1,0,4,4A4,4,0,0,0,260,151.76Z"/><polygon class="cls-4" points="204.89 353 204.89 729.81 205.84 729.81 205.84 353.39 260.45 298.77 260.45 161.2 259.51 161.2 259.51 298.38 204.89 353"/><path class="cls-4" d="M189.05,243.26a5.44,5.44,0,1,0-5.43-5.44A5.44,5.44,0,0,0,189.05,243.26Z"/><polygon class="cls-4" points="150.51 459.41 150.51 743.64 151.46 743.64 151.46 459.8 189.53 421.73 189.53 237.82 188.58 237.82 188.58 421.34 150.51 459.41"/><circle class="cls-4" cx="513.1" cy="367.2" r="5.43"/><polygon class="cls-4" points="474.56 588.79 474.56 873.02 475.51 873.02 475.51 589.18 513.57 551.11 513.57 367.2 512.63 367.2 512.63 550.72 474.56 588.79"/><polygon class="cls-4" points="99.37 544.73 99.37 812.54 100.32 812.54 100.32 545.67 158.96 545.67 158.96 369.09 158.82 368.95 123.49 333.63 123.49 241.61 122.54 241.61 122.54 334.02 122.68 334.16 158.01 369.48 158.01 544.73 99.37 544.73"/><path class="cls-4" d="M123,229.33a6.85,6.85,0,1,1-6.85,6.85A6.86,6.86,0,0,1,123,229.33Zm0,2.83a4,4,0,1,0,4,4A4,4,0,0,0,123,232.16Z"/><circle class="cls-4" cx="187.65" cy="475.09" r="5.43"/><polygon class="cls-4" points="129.16 630.14 129.16 935.66 130.11 935.66 130.11 630.53 188.12 572.51 188.12 475.09 187.18 475.09 187.18 572.12 129.16 630.14"/><circle class="cls-4" cx="920.53" cy="531.06" r="5.43"/><polygon class="cls-4" points="862.04 686.1 862.04 991.63 862.98 991.63 862.98 686.5 921 628.48 921 531.05 920.05 531.05 920.05 628.09 862.04 686.1"/><circle class="cls-4" cx="1225.01" cy="584.97" r="5.43" transform="translate(219.12 1496.57) rotate(-67.71)"/><circle class="cls-4" cx="694" cy="533.77" r="5.43"/><polygon class="cls-4" points="635.51 688.82 635.51 994.34 636.46 994.34 636.46 689.21 694.48 631.2 694.48 533.77 693.53 533.77 693.53 630.8 635.51 688.82"/><circle class="cls-4" cx="215.58" cy="569.01" r="5.43"/><polygon class="cls-4" points="157.09 724.06 157.09 1029.58 158.04 1029.58 158.04 724.45 216.05 666.43 216.05 569.01 215.11 569.01 215.11 666.04 157.09 724.06"/><polygon class="cls-4" points="443.52 552.03 443.52 767.5 444.29 767.5 444.29 552.86 492.04 552.86 492.04 399.24 491.93 399.12 463.16 368.39 463.16 288.34 462.39 288.34 462.39 368.73 462.5 368.85 491.27 399.58 491.27 552.03 443.52 552.03"/><path class="cls-4" d="M462.8,293.77a5.44,5.44,0,1,1,5.43-5.43A5.43,5.43,0,0,1,462.8,293.77Z"/><polygon class="cls-4" points="434.03 223.65 434.03 346.32 433.89 346.46 382.49 397.87 382.49 750.6 381.54 750.6 381.54 397.47 381.68 397.33 433.08 345.93 433.08 223.65 434.03 223.65"/><circle class="cls-4" cx="433.56" cy="223.65" r="5.43"/><path class="cls-4" d="M-.84,339.3A6.86,6.86,0,0,1,6,346.16,6.86,6.86,0,0,1-.84,353a6.86,6.86,0,0,1-6.85-6.85A6.86,6.86,0,0,1-.84,339.3Zm0,2.84a4,4,0,0,0-4,4,4,4,0,0,0,4,4,4,4,0,0,0,4-4A4,4,0,0,0-.84,342.14Z"/><polygon class="cls-4" points="-24.5 654.7 -24.5 769.46 -23.56 769.46 -23.56 655.65 35.08 655.65 35.08 479.07 34.94 478.93 -0.39 443.6 -0.39 351.59 -1.33 351.59 -1.33 444 -1.2 444.13 34.13 479.46 34.13 654.7 -24.5 654.7"/><polygon class="cls-4" points="330.42 460.05 330.42 744.96 331.36 744.96 331.36 460.99 390 460.99 390 284.41 389.86 284.27 354.53 248.95 354.53 156.93 353.59 156.93 353.59 249.34 353.73 249.48 389.05 284.81 389.05 460.05 330.42 460.05"/><path class="cls-4" d="M353.41,144.68a6.85,6.85,0,1,1-6.15,7.5A6.86,6.86,0,0,1,353.41,144.68Zm.28,2.83a4,4,0,1,0,4.39,3.6A4,4,0,0,0,353.69,147.51Z"/><path class="cls-4" d="M375,288.85a5.43,5.43,0,1,1,5.44-5.43A5.43,5.43,0,0,1,375,288.85Z"/><polygon class="cls-4" points="413.53 505.01 413.53 722.19 412.59 722.19 412.59 505.4 374.52 467.33 374.52 283.42 375.47 283.42 375.47 466.94 413.53 505.01"/><polygon class="cls-4" points="420.78 293.4 420.78 680.21 419.83 680.21 419.83 293.8 365.21 239.18 365.21 101.61 366.16 101.61 366.16 238.79 420.78 293.4"/><path class="cls-4" d="M365.64,107a5.43,5.43,0,1,1,5.43-5.43A5.43,5.43,0,0,1,365.64,107Z"/><polygon class="cls-4" points="463.19 408.38 463.19 719.88 462.25 719.88 462.25 409.33 403.61 409.33 403.61 232.75 403.75 232.61 439.08 197.29 439.08 105.27 440.02 105.27 440.02 197.68 439.89 197.82 404.56 233.14 404.56 408.38 463.19 408.38"/><path class="cls-4" d="M446.38,99.84A6.85,6.85,0,1,1,439.53,93,6.85,6.85,0,0,1,446.38,99.84Zm-10.86,0a4,4,0,1,0,4-4A4,4,0,0,0,435.52,99.84Z"/><path class="cls-4" d="M498.4,232.78a6.86,6.86,0,1,1-6.86-6.86A6.87,6.87,0,0,1,498.4,232.78Zm-10.87,0a4,4,0,1,0,4-4A4,4,0,0,0,487.53,232.78Z"/><polygon class="cls-4" points="492.02 238.21 492.02 355.23 491.88 355.37 434.35 412.9 434.35 770.14 433.4 770.14 433.4 412.51 433.54 412.37 491.07 354.84 491.07 238.21 492.02 238.21"/><path class="cls-4" d="M313.36,347.88a5.44,5.44,0,1,1,5.43-5.43A5.43,5.43,0,0,1,313.36,347.88Z"/><polygon class="cls-4" points="371.84 497.5 371.84 695.79 370.9 695.79 370.9 497.89 312.88 439.87 312.88 342.45 313.83 342.45 313.83 439.48 371.84 497.5"/><path class="cls-4" d="M328.78,271.86a5.16,5.16,0,1,1,5.15-5.15A5.15,5.15,0,0,1,328.78,271.86Z"/><polygon class="cls-4" points="329.23 266.71 329.23 383.08 329.1 383.21 280.33 431.98 280.33 766.6 279.43 766.6 279.43 431.61 279.56 431.47 328.33 382.71 328.33 266.71 329.23 266.71"/><path class="cls-4" d="M146.59,189a5.43,5.43,0,1,0-5.44-5.43A5.43,5.43,0,0,0,146.59,189Z"/><polygon class="cls-4" points="198.85 365.54 198.85 676.21 197.96 676.21 197.96 365.92 146.14 314.1 146.14 183.6 147.04 183.6 147.04 313.73 198.85 365.54"/><path class="cls-4" d="M205.64,64.7a5.15,5.15,0,1,1,5.15-5.15A5.15,5.15,0,0,1,205.64,64.7Z"/><polygon class="cls-4" points="242.68 268.64 242.68 725 241.78 725 241.78 269.02 205.67 232.9 205.67 58.44 206.57 58.44 206.57 232.53 242.68 268.64"/><path class="cls-4" d="M223.84,367.35a6.09,6.09,0,1,1-6.08-6.08A6.09,6.09,0,0,1,223.84,367.35Zm-9.65,0a3.57,3.57,0,1,0,3.57-3.56A3.56,3.56,0,0,0,214.19,367.35Z"/><polygon class="cls-4" points="218.18 372.17 218.18 476.09 218.05 476.22 166.96 527.31 166.96 702.66 166.12 702.66 166.12 526.96 166.25 526.84 217.34 475.75 217.34 372.17 218.18 372.17"/><path class="cls-4" d="M267.55,525.21a6.08,6.08,0,1,1-6.08-6.09A6.09,6.09,0,0,1,267.55,525.21Zm-9.64,0a3.56,3.56,0,1,0,3.56-3.57A3.56,3.56,0,0,0,257.91,525.21Z"/><polygon class="cls-4" points="261.89 530.03 261.89 633.95 261.77 634.07 210.68 685.16 210.68 860.51 209.84 860.51 209.84 684.81 209.96 684.69 261.05 633.6 261.05 530.03 261.89 530.03"/><path class="cls-4" d="M365.64,417.62a6.09,6.09,0,1,1-6.09-6.09A6.09,6.09,0,0,1,365.64,417.62Zm-9.65,0a3.57,3.57,0,1,0,3.56-3.57A3.57,3.57,0,0,0,356,417.62Z"/><polygon class="cls-4" points="359.98 422.44 359.98 526.36 359.85 526.48 308.76 577.57 308.76 752.92 307.92 752.92 307.92 577.22 308.04 577.1 359.13 526.01 359.13 422.44 359.98 422.44"/><path class="cls-4" d="M409.28,462.92a6.08,6.08,0,1,1-6.08-6.08A6.09,6.09,0,0,1,409.28,462.92Zm-9.64,0a3.57,3.57,0,1,0,3.56-3.56A3.56,3.56,0,0,0,399.64,462.92Z"/><polygon class="cls-4" points="403.62 467.75 403.62 571.66 403.5 571.79 352.41 622.88 352.41 798.23 351.57 798.23 351.57 622.53 351.69 622.41 402.78 571.32 402.78 467.75 403.62 467.75"/><path class="cls-4" d="M281.43,286.24a6.09,6.09,0,1,1-6.09-6.09A6.09,6.09,0,0,1,281.43,286.24Zm-9.65,0a3.57,3.57,0,1,0,3.56-3.57A3.57,3.57,0,0,0,271.78,286.24Z"/><polygon class="cls-4" points="275.76 291.06 275.76 394.98 275.64 395.1 224.55 446.19 224.55 765.13 223.71 765.13 223.71 445.84 223.84 445.72 274.92 394.63 274.92 291.06 275.76 291.06"/><path class="cls-4" d="M298.64,176.71a6.5,6.5,0,1,1-6.49,6.5A6.5,6.5,0,0,1,298.64,176.71Zm0,2.69a3.81,3.81,0,1,0,3.81,3.81A3.81,3.81,0,0,0,298.64,179.4Z"/><polygon class="cls-4" points="246.38 370.3 246.38 738.48 247.28 738.48 247.28 370.67 299.09 318.86 299.09 188.36 298.2 188.36 298.2 318.49 246.38 370.3"/><path class="cls-4" d="M288.44,248.42a5.15,5.15,0,1,0-5.15-5.15A5.14,5.14,0,0,0,288.44,248.42Z"/><polygon class="cls-4" points="251.88 453.48 251.88 719.62 252.78 719.62 252.78 453.85 288.89 417.74 288.89 243.27 287.99 243.27 287.99 417.37 251.88 453.48"/><path class="cls-4" d="M299.3,383.2a6.5,6.5,0,1,1-6.5,6.5A6.51,6.51,0,0,1,299.3,383.2Zm0,2.69a3.81,3.81,0,1,0,3.8,3.81A3.82,3.82,0,0,0,299.3,385.89Z"/><polygon class="cls-4" points="298.85 394.71 298.85 487.61 298.98 487.74 353.56 542.32 353.56 729.64 354.45 729.64 354.45 541.94 354.32 541.81 299.75 487.23 299.75 394.71 298.85 394.71"/><circle class="cls-4" cx="359.11" cy="304.68" r="5.15"/><polygon class="cls-4" points="303.63 451.76 303.63 756.02 304.53 756.02 304.53 452.13 359.56 397.1 359.56 304.68 358.67 304.68 358.67 396.73 303.63 451.76"/><path class="cls-4" d="M41.93,385.41a6.85,6.85,0,1,1-6.85,6.86A6.86,6.86,0,0,1,41.93,385.41Zm0,2.84a4,4,0,1,0,4,4A4,4,0,0,0,41.93,388.25Z"/><polygon class="cls-4" points="18.27 700.81 18.27 815.57 19.21 815.57 19.21 701.76 77.85 701.76 77.85 525.18 77.71 525.04 42.38 489.71 42.38 397.7 41.44 397.7 41.44 490.1 41.57 490.24 76.9 525.57 76.9 700.81 18.27 700.81"/></g></g></svg>